<?xml version="1.0" encoding="UTF-8"?>
<svg version="1.1" xmlns="http://www.w3.org/2000/svg" width="512" height="512">
<path d="M0 0 C168.96 0 337.92 0 512 0 C512 168.96 512 337.92 512 512 C343.04 512 174.08 512 0 512 C0 343.04 0 174.08 0 0 Z " fill="#2D1058" transform="translate(0,0)"/>
<path d="M0 0 C15.51 0 31.02 0 47 0 C46.9779248 3.43132324 46.95584961 6.86264648 46.93310547 10.39794922 C46.8673618 21.75347029 46.85623831 33.10861047 46.87302971 44.46429253 C46.88188151 51.34734792 46.87226714 58.22943104 46.81835938 65.11230469 C46.76635684 71.75867136 46.76690089 78.40371656 46.79904556 85.05029678 C46.80278773 87.58195573 46.7891195 90.11370402 46.75750351 92.6451683 C45.90393313 106.35206908 45.90393313 106.35206908 50.30621338 118.8369751 C52.75229381 121.30764629 55.01508174 123.2348125 58 125 C56.85455923 128.43632231 55.7288492 129.33471585 53 131.625 C52.278125 132.23601562 51.55625 132.84703125 50.8125 133.4765625 C50.214375 133.97929687 49.61625 134.48203125 49 135 C46.8401679 137.1598321 47.81340455 142.20104634 47.79467773 145.20141602 C47.78477814 146.16716553 47.77487854 147.13291504 47.76467896 148.12792969 C47.73296099 151.33656316 47.708266 154.54521148 47.68359375 157.75390625 C47.6630331 159.97208553 47.64203688 162.19026082 47.62062073 164.40843201 C47.56530818 170.25935641 47.51593954 176.1103167 47.46777344 181.96130371 C47.40881521 188.97471817 47.34253693 195.98806673 47.27747345 203.0014267 C47.17934848 213.66757771 47.09057142 224.33377011 47 235 C31.49 235 15.98 235 0 235 C-2.73778683 228.61183073 -5.21760934 222.20230028 -7.625 215.6875 C-8.06303955 214.50486572 -8.5010791 213.32223145 -8.95239258 212.10375977 C-12.36678702 202.83418595 -15.61057336 193.51235177 -18.80615234 184.16552734 C-21.23910788 177.08774 -23.84571258 170.10487549 -26.60913086 163.15039062 C-29.36054575 156.18954611 -31.70810916 149.1246045 -34 142 C-36.71620645 133.5588661 -39.8630479 125.29168328 -43 117 C-43.99 114.36 -44.98 111.72 -46 109 C-46.33 150.91 -46.66 192.82 -47 236 C-62.51 236 -78.02 236 -94 236 C-93.95617187 228.96945312 -93.91234375 221.93890625 -93.8671875 214.6953125 C-93.86169353 210.22902018 -93.85915053 205.76311347 -93.8671875 201.296875 C-93.87965226 194.21470848 -93.88146524 187.13370674 -93.81835938 180.05175781 C-93.76813814 174.33885208 -93.76693025 168.62780638 -93.79904556 162.91479111 C-93.80278351 160.7403855 -93.78915509 158.56587537 -93.75750351 156.39169693 C-93.02788772 144.30829621 -93.02788772 144.30829621 -97.34136963 133.51849365 C-100.03437842 130.81393909 -100.03437842 130.81393909 -102.95217896 128.78244019 C-103.6279599 128.19423492 -104.30374084 127.60602966 -105 127 C-104.8566255 124.07757538 -104.08532192 123.08243972 -101.97274113 121.04122257 C-101.15907802 120.35513637 -100.34541491 119.66905016 -99.50709534 118.96217346 C-95.07480629 114.64975992 -93.94868947 111.82246448 -93.8167572 105.70909119 C-93.83976395 104.68481522 -93.86277069 103.66053925 -93.88647461 102.60522461 C-93.8754068 101.5017569 -93.86433899 100.39828918 -93.85293579 99.26138306 C-93.82707094 95.64044512 -93.86426591 92.02312537 -93.90234375 88.40234375 C-93.89668768 85.88170718 -93.8870729 83.36107665 -93.87367249 80.84046936 C-93.85160473 74.90113603 -93.86923583 68.96277499 -93.90644604 63.02359539 C-93.94660056 56.25678492 -93.93551743 49.49035354 -93.92032993 42.72347629 C-93.89025184 28.81518377 -93.93063027 14.90813381 -94 1 C-78.16 1 -62.32 1 -46 1 C-43.69 7.6 -41.38 14.2 -39 21 C-37.46371637 25.33540234 -35.92434581 29.66929846 -34.375 34 C-33.76047974 35.71993164 -33.76047974 35.71993164 -33.13354492 37.47460938 C-29.26909577 48.27644315 -25.36605028 59.06428409 -21.46127319 69.85159302 C-15.79372215 85.51175332 -15.79372215 85.51175332 -13.11083984 93.27514648 C-9.28704906 104.30064582 -5.16705103 115.06149105 -1 126 C-0.67 84.42 -0.34 42.84 0 0 Z " fill="#FDFCFE" transform="translate(275,130)"/>
<path d="M0 0 C0.66 0 1.32 0 2 0 C2 0.66 2 1.32 2 2 C18.335 2.495 18.335 2.495 35 3 C38.37470554 9.74941109 38.37470554 9.74941109 38.31365967 13.88841248 C38.30766754 14.82051544 38.30167542 15.75261841 38.29550171 16.71296692 C38.262827 18.22101143 38.262827 18.22101143 38.22949219 19.75952148 C38.21868622 20.83179993 38.20788025 21.90407837 38.19674683 23.0088501 C38.17198342 25.33170086 38.14056246 27.65448813 38.10323334 29.97717094 C38.04634836 33.65514433 38.01172832 37.33270167 37.98370361 41.01100159 C37.90126799 51.46685826 37.78838173 61.92211146 37.63671875 72.37719727 C37.54544826 78.77719457 37.48838113 85.17675052 37.45267487 91.57728767 C37.43221976 94.01385018 37.39862343 96.45033944 37.35158539 98.88653374 C37.28657945 102.29527824 37.26498149 105.70179894 37.25292969 109.11108398 C37.22304962 110.11442276 37.19316956 111.11776154 37.16238403 112.15150452 C37.19189862 117.37052697 37.64864252 120.25499164 41.39044189 124.04774475 C42.57009594 125.05991886 43.77152928 126.04766614 45 127 C47.5 129.125 47.5 129.125 49 131 C48.86035155 134.46147344 48.31349268 135.70715221 45.75686646 138.09541321 C44.85112885 138.85323593 43.94539124 139.61105865 43.01220703 140.3918457 C37.07770063 146.24110918 36.86498801 152.26158175 36.71948433 160.28476429 C36.71441783 163.43441186 36.75872593 166.58118678 36.8046875 169.73046875 C36.80089565 171.93436333 36.79269842 174.13825432 36.78030396 176.34211731 C36.75958413 182.11144757 36.79828643 187.87887202 36.84979248 193.64794922 C36.89180516 199.54722154 36.87703542 205.44632977 36.8671875 211.34570312 C36.85620021 222.89767159 36.90805087 234.44842399 37 246 C23.97080796 252.80807704 -3.98480144 251.29191692 -17.9675293 247.4609375 C-21.15508881 245.16972355 -21.79570741 241.81679841 -22.91015625 238.2109375 C-23.16373398 237.43368317 -23.41731171 236.65642883 -23.67857361 235.85562134 C-24.48745478 233.36641821 -25.27543645 230.8711777 -26.0625 228.375 C-26.85765427 225.90188428 -27.6570106 223.43015933 -28.45713806 220.95864868 C-28.95303233 219.42163247 -29.44526411 217.88342782 -29.93312073 216.34384155 C-31.84777699 210.32712669 -34.05438599 204.45469123 -36.32421875 198.5625 C-39.51616417 190.22137041 -42.52738515 181.8184858 -45.4375 173.375 C-45.80383545 172.34375 -46.1701709 171.3125 -46.54760742 170.25 C-46.88123291 169.26773438 -47.2148584 168.28546875 -47.55859375 167.2734375 C-47.86079834 166.40122559 -48.16300293 165.52901367 -48.47436523 164.63037109 C-49 162 -49 162 -48.44580078 159.12646484 C-47.88252735 155.17614747 -48.91680859 152.33216296 -50.30859375 148.703125 C-50.55416519 148.02828064 -50.79973663 147.35343628 -51.05274963 146.65814209 C-51.83459546 144.51701533 -52.63519637 142.38353513 -53.4375 140.25 C-54.23240109 138.10095643 -55.0233633 135.95053012 -55.8115387 133.79901123 C-56.30202664 132.46396715 -56.79711412 131.13060214 -57.29722595 129.7991333 C-59 125.21844588 -59 125.21844588 -59 123 C-59.66 123 -60.32 123 -61 123 C-61 161.28 -61 199.56 -61 239 C-60.34 239 -59.68 239 -59 239 C-59.00444122 237.75163361 -59.00888245 236.50326721 -59.01345825 235.21707153 C-59.05393479 223.47422145 -59.08395089 211.73138544 -59.10362434 199.98848152 C-59.11407853 193.95078762 -59.12826747 187.91314986 -59.15087891 181.87548828 C-59.17254909 176.0529716 -59.1845563 170.23050905 -59.18975449 164.40795517 C-59.19346074 162.18231224 -59.20069771 159.95667239 -59.21146011 157.7310524 C-59.22589763 154.62288165 -59.2279812 151.51493695 -59.22705078 148.40673828 C-59.23424133 147.47885498 -59.24143188 146.55097168 -59.24884033 145.5949707 C-59.246091 144.75080597 -59.24334167 143.90664124 -59.24050903 143.03689575 C-59.24235262 142.30130495 -59.24419621 141.56571415 -59.24609566 140.80783272 C-59 139 -59 139 -57 137 C-57.33 140.63 -57.66 144.26 -58 148 C-57.34 148.33 -56.68 148.66 -56 149 C-56.33 149.33 -56.66 149.66 -57 150 C-57.07395784 152.93701 -57.08301572 155.85009796 -57.05004883 158.78662109 C-57.04063011 160.16949562 -57.04063011 160.16949562 -57.03102112 161.58030701 C-57.01713307 163.58943484 -57.00118902 165.59854925 -56.98346901 167.60764694 C-56.95694124 170.78421596 -56.93900333 173.96071648 -56.92399597 177.13735962 C-56.88112896 186.17177838 -56.83347831 195.20606075 -56.75317383 204.24023438 C-56.70474308 209.75916412 -56.67568057 215.27790172 -56.65942955 220.79701614 C-56.64950513 222.90464556 -56.63225483 225.01225332 -56.60764503 227.11976242 C-56.57402298 230.06494483 -56.5650209 233.00923986 -56.56176758 235.95458984 C-56.54581543 236.83055313 -56.52986328 237.70651642 -56.51342773 238.60902405 C-56.54324042 244.50775111 -56.54324042 244.50775111 -58.87666321 247.0224762 C-63.03291137 248.93589451 -66.89021105 249.11585216 -71.4140625 249.02734375 C-72.42210937 249.01509766 -73.43015625 249.00285156 -74.46875 248.99023438 C-76.58079561 248.95494648 -78.69278095 248.91585579 -80.8046875 248.87304688 C-81.81015625 248.86208984 -82.815625 248.85113281 -83.8515625 248.83984375 C-84.76760254 248.82300537 -85.68364258 248.80616699 -86.62744141 248.78881836 C-89.2682433 248.83306746 -89.2682433 248.83306746 -92 251 C-92 250.01 -92 249.02 -92 248 C-93.25296875 248.04640625 -94.5059375 248.0928125 -95.796875 248.140625 C-97.44789281 248.17814813 -99.09893642 248.21454771 -100.75 248.25 C-101.575 248.28351563 -102.4 248.31703125 -103.25 248.3515625 C-104.04921875 248.36445313 -104.8484375 248.37734375 -105.671875 248.390625 C-106.4050293 248.41157227 -107.13818359 248.43251953 -107.89355469 248.45410156 C-111.08416654 247.76627842 -112.05002758 246.62765131 -114 244 C-114.5941467 240.87482148 -114.5225002 237.78605081 -114.48242188 234.61328125 C-114.48633438 233.6632724 -114.49024689 232.71326355 -114.49427795 231.73446655 C-114.50025364 229.67303124 -114.49708172 227.61155378 -114.4858551 225.55014038 C-114.46862451 222.28874777 -114.47608384 219.02824397 -114.4901123 215.7668457 C-114.51979424 207.66804341 -114.50655866 199.56940987 -114.49493408 191.47058105 C-114.48674151 184.62610355 -114.49462276 177.78201375 -114.52406311 170.93759155 C-114.5311732 167.72222996 -114.51445905 164.50754459 -114.49694824 161.29223633 C-114.50265456 159.32372673 -114.50947107 157.35521993 -114.51757812 155.38671875 C-114.50626358 154.49101166 -114.49494904 153.59530457 -114.48329163 152.67245483 C-114.47383801 147.73232845 -114.47383801 147.73232845 -116.92858887 143.57739258 C-117.95393738 142.79658325 -117.95393738 142.79658325 -119 142 C-120.02304948 140.34738161 -121.02616054 138.68208635 -122 137 C-122.66 136.34 -123.32 135.68 -124 135 C-124.43310547 132.60707092 -124.43310547 132.60707092 -124 130 C-121.85205078 128.22386169 -121.85205078 128.22386169 -119.0703125 126.28686523 C-113.44832783 120.88692169 -113.00245021 116.16973518 -112.8046875 108.53930664 C-112.74338796 103.82703497 -112.80316328 99.12199804 -112.875 94.41015625 C-112.8762918 91.8981457 -112.87288367 89.38612873 -112.86499023 86.87413025 C-112.85649845 80.95593913 -112.89073391 75.03903458 -112.94751072 69.12120193 C-113.04090809 59.13963967 -113.04125147 49.15782608 -113.04931641 39.17588806 C-113.05355222 34.22092417 -113.07944754 29.2667985 -113.12255859 24.31202698 C-113.13514696 22.05966218 -113.14768243 19.80729708 -113.16015625 17.55493164 C-113.17370651 16.52479446 -113.18725677 15.49465729 -113.20121765 14.43330383 C-113.20450577 13.49283203 -113.20779388 12.55236023 -113.21118164 11.58338928 C-113.21863907 10.76584199 -113.2260965 9.9482947 -113.23377991 9.10597324 C-113 7 -113 7 -111 4 C-108.84352112 3.61231995 -108.84352112 3.61231995 -106.13891602 3.59594727 C-104.6220797 3.57692101 -104.6220797 3.57692101 -103.07460022 3.55751038 C-101.97877121 3.56044601 -100.8829422 3.56338165 -99.75390625 3.56640625 C-98.07082619 3.55854347 -98.07082619 3.55854347 -96.35374451 3.55052185 C-93.97729318 3.54408921 -91.60081006 3.5454546 -89.22436523 3.55395508 C-85.58064222 3.56245767 -81.93848952 3.53373057 -78.29492188 3.50195312 C-75.98958381 3.50034097 -73.68424295 3.50091892 -71.37890625 3.50390625 C-69.73819908 3.48705528 -69.73819908 3.48705528 -68.06434631 3.46986389 C-66.54278175 3.48393532 -66.54278175 3.48393532 -64.99047852 3.49829102 C-64.09716324 3.49845718 -63.20384796 3.49862335 -62.28346252 3.49879456 C-60 4 -60 4 -58.2386322 5.89219666 C-56.92064341 8.13504258 -56.2214757 10.11188769 -55.5625 12.625 C-54.61977524 15.97046426 -53.58666756 19.16699786 -52.25 22.375 C-50.1233604 27.53969617 -48.2768734 32.79046595 -46.4375 38.0625 C-46.14456055 38.90151855 -45.85162109 39.74053711 -45.54980469 40.60498047 C-44.97661847 42.25442559 -44.40658109 43.90496862 -43.83984375 45.55664062 C-43.27188668 47.20899945 -42.69614242 48.85869885 -42.11328125 50.50585938 C-41.83742188 51.29927734 -41.5615625 52.09269531 -41.27734375 52.91015625 C-40.90403931 53.96988647 -40.90403931 53.96988647 -40.52319336 55.05102539 C-40 57 -40 57 -40.125 60.375 C-40.08375 61.24125 -40.0425 62.1075 -40 63 C-38.82135376 63.67180298 -38.82135376 63.67180298 -37.61889648 64.35717773 C-34.48463229 66.3232879 -34.04816508 67.43403235 -32.97265625 70.91015625 C-32.658125 71.89177734 -32.34359375 72.87339844 -32.01953125 73.88476562 C-31.70371094 74.93341797 -31.38789063 75.98207031 -31.0625 77.0625 C-30.37687344 79.24106531 -29.69066994 81.41944914 -29.00390625 83.59765625 C-28.50141357 85.22018311 -28.50141357 85.22018311 -27.98876953 86.87548828 C-27.09269135 89.70709532 -26.14346252 92.50909909 -25.15234375 95.30859375 C-24.87189209 96.1070874 -24.59144043 96.90558105 -24.30249023 97.72827148 C-23.78513446 99.19282745 -23.26044517 100.65482354 -22.72680664 102.11352539 C-21.51085591 105.62992346 -21.0004008 108.01629913 -21.09375 111.8125 C-21.19490463 117.29423276 -21.19490463 117.29423276 -17 127 C-17 115.78 -17 104.56 -17 93 C-17.33 97.95 -17.66 102.9 -18 108 C-18.33 108 -18.66 108 -19 108 C-19.84378962 86.6666617 -20.18828645 65.35885724 -20.18530273 44.00952148 C-20.18519848 39.91327614 -20.19918074 35.8171941 -20.21607494 31.72098827 C-20.2271319 28.52723898 -20.2292244 25.33353127 -20.22869301 22.13976479 C-20.22986988 20.62585161 -20.23427517 19.11193724 -20.24202538 17.59804344 C-20.25175567 15.5133965 -20.24898253 13.42913472 -20.24291992 11.34448242 C-20.24434494 10.16335373 -20.24576996 8.98222504 -20.24723816 7.76530457 C-20 5 -20 5 -18 3 C-14.25676478 2.40583568 -10.78305096 2 -7 2 C-3.18048626 1.73861239 -3.18048626 1.73861239 0 0 Z M-15 7 C-15.33 48.58 -15.66 90.16 -16 133 C-27.26208564 103.71857735 -27.26208564 103.71857735 -30.953125 92.93359375 C-33.50546268 85.51602958 -36.10219074 78.11404365 -38.6993103 70.71206665 C-39.53661439 68.32383326 -40.37155692 65.9347842 -41.20629883 63.5456543 C-43.99616932 55.57881972 -46.85985116 47.64810893 -49.84733582 39.75323486 C-52.3149769 33.2118382 -54.6086123 26.61359545 -56.875 20 C-58.916875 14.06 -58.916875 14.06 -61 8 C-76.84 8 -92.68 8 -109 8 C-108.9779248 11.3707373 -108.95584961 14.74147461 -108.93310547 18.21435547 C-108.86735705 29.37030813 -108.85623927 40.52587312 -108.87302971 51.68198967 C-108.88188091 58.44398365 -108.87227219 65.20498793 -108.81835938 71.96679688 C-108.76635051 78.49644362 -108.76690461 85.02487914 -108.79904556 91.5546608 C-108.80278727 94.04166298 -108.78912339 96.52875616 -108.75750351 99.01556015 C-108.5124896 119.69000977 -108.5124896 119.69000977 -112.34136963 124.66949463 C-115.13720703 127.35595703 -115.13720703 127.35595703 -117.95217896 129.32522583 C-118.6279599 129.87790131 -119.30374084 130.43057678 -120 131 C-120.26233981 133.09962108 -120.26233981 133.09962108 -119 135 C-117.52297058 136.14146772 -116.02132813 137.25129642 -114.50610352 138.34155273 C-108.7916677 143.92124984 -108.96659987 149.4941782 -108.83538151 157.05272579 C-108.82761863 160.21436872 -108.86429032 163.37375994 -108.90234375 166.53515625 C-108.89668642 168.74191103 -108.88706996 170.94865889 -108.87367249 173.15538025 C-108.84911795 178.94099845 -108.87809275 184.72513919 -108.91845703 190.51062012 C-108.9557373 197.46410722 -108.92611233 204.41759646 -108.90778351 211.37111664 C-108.88744083 221.91496191 -108.95174465 232.45524136 -109 243 C-93.49 243 -77.98 243 -62 243 C-61.67 201.09 -61.34 159.18 -61 116 C-58.36 123.26 -55.72 130.52 -53 138 C-52.01 139.98 -51.02 141.96 -50 144 C-49.19710643 146.55991066 -48.45162165 149.1011419 -47.75 151.6875 C-45.25616493 160.49982208 -42.15075238 169.02255658 -38.91162109 177.58398438 C-37.39998933 181.59017289 -35.91822133 185.60730398 -34.4375 189.625 C-34.14633301 190.41374512 -33.85516602 191.20249023 -33.55517578 192.01513672 C-31.66049933 197.16207571 -29.81440963 202.32427248 -28 207.5 C-25.81643687 213.72528989 -23.58515627 219.93165129 -21.3125 226.125 C-21.02697266 226.90681641 -20.74144531 227.68863281 -20.44726562 228.49414062 C-20.17205078 229.24115234 -19.89683594 229.98816406 -19.61328125 230.7578125 C-19.37391846 231.4089502 -19.13455566 232.06008789 -18.88793945 232.73095703 C-17.66696474 235.85103925 -16.31981733 238.92042624 -15 242 C0.51 242 16.02 242 32 242 C31.99097656 234.93464844 31.98195313 227.86929688 31.97265625 220.58984375 C31.98249582 216.10994315 31.99438824 211.6302362 32.01367188 207.15039062 C32.04407513 200.04191106 32.06693471 192.93397461 32.04467773 185.82543945 C32.02720617 180.09330269 32.04372771 174.36217349 32.08367729 168.63015938 C32.09296115 166.44495951 32.09006025 164.25967232 32.07469368 162.07450676 C32.05523451 159.00940543 32.07935838 155.94747699 32.11352539 152.88256836 C32.0977092 151.98201218 32.08189301 151.08145599 32.06559753 150.15361023 C32.17141503 145.210143 32.85510004 142.5973701 36.36790466 139.00733948 C38.50339977 137.11666095 40.61647556 135.58901629 43 134 C41.56028498 130.56680849 39.77199904 128.83161601 36.9375 126.46655273 C32.77414316 122.37842382 32.05498885 119.44437041 31.94117737 113.70658875 C31.97029457 112.13672966 31.97029457 112.13672966 32 110.53515625 C31.98361732 108.85091301 31.98361732 108.85091301 31.96690369 107.13264465 C31.94030904 103.44166333 31.96980791 99.75341654 32 96.0625 C31.99247884 93.49559298 31.98144261 90.92869405 31.96704102 88.36181641 C31.941537 82.30914413 31.95133322 76.25748374 31.97846508 70.20484924 C32.0073857 63.30988289 31.99085902 56.41525476 31.97065353 49.52028465 C31.93012891 35.34657884 31.95222356 21.17367671 32 7 C16.49 7 0.98 7 -15 7 Z " fill="#8206EB" transform="translate(290,123)"/>
<path d="M0 0 C0.66 0 1.32 0 2 0 C2 0.66 2 1.32 2 2 C18.335 2.495 18.335 2.495 35 3 C38.37470554 9.74941109 38.37470554 9.74941109 38.31365967 13.88841248 C38.30766754 14.82051544 38.30167542 15.75261841 38.29550171 16.71296692 C38.262827 18.22101143 38.262827 18.22101143 38.22949219 19.75952148 C38.21868622 20.83179993 38.20788025 21.90407837 38.19674683 23.0088501 C38.17198342 25.33170086 38.14056246 27.65448813 38.10323334 29.97717094 C38.04634836 33.65514433 38.01172832 37.33270167 37.98370361 41.01100159 C37.90126799 51.46685826 37.78838173 61.92211146 37.63671875 72.37719727 C37.54544826 78.77719457 37.48838113 85.17675052 37.45267487 91.57728767 C37.43221976 94.01385018 37.39862343 96.45033944 37.35158539 98.88653374 C37.28657945 102.29527824 37.26498149 105.70179894 37.25292969 109.11108398 C37.22304962 110.11442276 37.19316956 111.11776154 37.16238403 112.15150452 C37.19189862 117.37052697 37.64864252 120.25499164 41.39044189 124.04774475 C42.57009594 125.05991886 43.77152928 126.04766614 45 127 C47.5 129.125 47.5 129.125 49 131 C48.86035155 134.46147344 48.31349268 135.70715221 45.75686646 138.09541321 C44.85112885 138.85323593 43.94539124 139.61105865 43.01220703 140.3918457 C37.07770063 146.24110918 36.86498801 152.26158175 36.71948433 160.28476429 C36.71441783 163.43441186 36.75872593 166.58118678 36.8046875 169.73046875 C36.80089565 171.93436333 36.79269842 174.13825432 36.78030396 176.34211731 C36.75958413 182.11144757 36.79828643 187.87887202 36.84979248 193.64794922 C36.89180516 199.54722154 36.87703542 205.44632977 36.8671875 211.34570312 C36.85620021 222.89767159 36.90805087 234.44842399 37 246 C24.14942173 252.71474689 -4.48750347 251.54230662 -18.18359375 247.328125 C-20.85879569 245.37206337 -21.32418096 243.24640916 -22.3125 240.125 C-22.65925781 239.07570313 -23.00601562 238.02640625 -23.36328125 236.9453125 C-24 234 -24 234 -23 230 C-21.02 234.95 -19.04 239.9 -17 245 C-12.31854289 245.02291088 -7.63727898 245.04283732 -2.95581055 245.05493164 C-1.36205386 245.05997157 0.23169819 245.0668035 1.82543945 245.07543945 C4.11150253 245.08751999 6.39750467 245.09323155 8.68359375 245.09765625 C9.40026718 245.10281754 10.11694061 245.10797882 10.85533142 245.11329651 C12.57063672 245.11349263 14.28581266 245.06192007 16 245 C16.33 244.67 16.66 244.34 17 244 C19.52596259 243.76346477 22.03107207 243.57826308 24.5625 243.4375 C25.27341797 243.39431641 25.98433594 243.35113281 26.71679688 243.30664062 C28.47761912 243.20028223 30.2387832 243.09961154 32 243 C31.99547569 241.18168922 31.99547569 241.18168922 31.99085999 239.3266449 C31.96697003 227.89417092 31.9798085 216.46224735 32.02846622 205.02984524 C32.05230453 199.15244933 32.0632704 193.27562036 32.04467773 187.39819336 C32.02720519 181.72440745 32.0437296 176.05163939 32.08367729 170.37797737 C32.09296061 168.21510638 32.09006114 166.05214716 32.07469368 163.88931084 C32.05523224 160.85533132 32.07936061 157.82455642 32.11352539 154.79077148 C32.0977092 153.89956604 32.08189301 153.0083606 32.06559753 152.09014893 C32.1445075 148.44052981 32.22913324 145.97145659 34.54708672 143.05034065 C35.78471939 141.87583044 37.04887044 140.72853762 38.33975887 139.61282444 C40.63180078 137.38624353 41.32499275 135.07503305 42 132 C40.93418198 131.37195969 40.93418198 131.37195969 39.84683228 130.73123169 C35.62099198 127.54883161 32.61271181 124.68773106 31.42485809 119.47707367 C30.54358202 111.63798856 30.85521564 103.7388023 31.0234375 95.8671875 C31.04210556 93.30317957 31.05633223 90.7391358 31.0663147 88.17507935 C31.10048404 82.1359664 31.17913533 76.09904765 31.27980959 70.06081116 C31.39200377 63.18068033 31.44666964 56.30045688 31.49676394 49.41963744 C31.60099054 35.27856009 31.78420134 21.13979223 32 7 C16.49 7 0.98 7 -15 7 C-15 49.57 -15 92.14 -15 136 C-16.89453748 133.15819378 -18.00192814 130.68435185 -19.1875 127.5 C-19.55230469 126.5409375 -19.91710937 125.581875 -20.29296875 124.59375 C-21 122 -21 122 -20 119 C-19.01 121.64 -18.02 124.28 -17 127 C-17 115.78 -17 104.56 -17 93 C-17.33 97.95 -17.66 102.9 -18 108 C-18.33 108 -18.66 108 -19 108 C-19.84378962 86.6666617 -20.18828645 65.35885724 -20.18530273 44.00952148 C-20.18519848 39.91327614 -20.19918074 35.8171941 -20.21607494 31.72098827 C-20.2271319 28.52723898 -20.2292244 25.33353127 -20.22869301 22.13976479 C-20.22986988 20.62585161 -20.23427517 19.11193724 -20.24202538 17.59804344 C-20.25175567 15.5133965 -20.24898253 13.42913472 -20.24291992 11.34448242 C-20.24434494 10.16335373 -20.24576996 8.98222504 -20.24723816 7.76530457 C-20 5 -20 5 -18 3 C-14.25676478 2.40583568 -10.78305096 2 -7 2 C-3.18048626 1.73861239 -3.18048626 1.73861239 0 0 Z " fill="#7702DC" transform="translate(290,123)"/>
<path d="M0 0 C2.2565298 2.2565298 2.79306283 3.80638779 3.83984375 6.796875 C4.18080078 7.7559375 4.52175781 8.715 4.87304688 9.703125 C5.39995117 11.21132812 5.39995117 11.21132812 5.9375 12.75 C8.4705201 20.11254044 8.4705201 20.11254044 11.61328125 27.22265625 C13.29947714 30.59979788 14.26659351 34.06241039 15.25 37.6875 C17.74383507 46.49982208 20.84924762 55.02255658 24.08837891 63.58398438 C25.60001067 67.59017289 27.08177867 71.60730398 28.5625 75.625 C28.85366699 76.41374512 29.14483398 77.20249023 29.44482422 78.01513672 C31.59114479 83.84567366 33.66913637 89.69823975 35.72192383 95.56225586 C37.95743777 101.9284323 40.28849815 108.25811126 42.640625 114.58203125 C42.9190625 115.33226562 43.1975 116.0825 43.484375 116.85546875 C43.72897461 117.51184326 43.97357422 118.16821777 44.22558594 118.84448242 C45.19647519 121.54687245 46.09195056 124.27585169 47 127 C70.265 127.495 70.265 127.495 94 128 C93.9071875 120.94625 93.814375 113.8925 93.71875 106.625 C93.67786139 102.14968052 93.63934992 97.67459214 93.609375 93.19921875 C93.56159571 86.09928414 93.50514522 79.00017679 93.39648438 71.90087891 C93.30940349 66.17550613 93.26169271 60.45102065 93.24098206 54.72503662 C93.22622797 52.54329462 93.19741526 50.36159987 93.15415955 48.18023682 C92.82752901 31.02221205 92.82752901 31.02221205 95.83422852 25.83642578 C97.79799626 23.85122567 99.5689148 22.35655622 102 21 C102.66 21.33 103.32 21.66 104 22 C102.85459775 23.31287621 101.70866567 24.62529021 100.5625 25.9375 C99.92441406 26.66839844 99.28632813 27.39929688 98.62890625 28.15234375 C97.77458541 29.12139353 96.91348825 30.08651175 96 31 C95.87995776 34.03810364 95.82450376 37.05447562 95.81054688 40.09375 C95.80225357 41.04813965 95.79396027 42.0025293 95.78541565 42.98583984 C95.76797326 45.06533114 95.75281804 47.14484255 95.73963928 49.22436523 C95.71868842 52.50965634 95.69166028 55.79484616 95.66296387 59.08007812 C95.60315159 66.05334694 95.5510425 73.0266622 95.5 80 C95.44088061 88.07678855 95.37867046 96.15352711 95.30812073 104.23022461 C95.28143873 107.47703466 95.2606889 110.72384944 95.2401123 113.97070312 C95.22351686 115.94922121 95.20664569 117.92773701 95.18945312 119.90625 C95.18526871 120.81745605 95.18108429 121.72866211 95.17677307 122.66748047 C95.11384346 128.88615654 95.11384346 128.88615654 94 130 C90.7901307 130.26998901 87.58769141 130.44611437 84.37109375 130.60546875 C80.89055723 130.4970552 80.89055723 130.4970552 78 132 C73.33369886 132.29076967 68.66472909 132.31397479 63.99023438 132.35009766 C62.41684178 132.3666631 60.84352463 132.39396155 59.27050781 132.43212891 C57.0054613 132.48682869 54.74218 132.50875774 52.4765625 132.5234375 C51.77334869 132.54610687 51.07013489 132.56877625 50.34561157 132.59213257 C48.35400391 132.58349609 48.35400391 132.58349609 45 132 C43.09204102 129.60058594 43.09204102 129.60058594 42 127 C41.68675781 126.29617188 41.37351562 125.59234375 41.05078125 124.8671875 C40.80714844 124.20976562 40.56351562 123.55234375 40.3125 122.875 C40.06113281 122.21242188 39.80976563 121.54984375 39.55078125 120.8671875 C39 119 39 119 39 116 C38.34 116 37.68 116 37 116 C36.80365967 115.43603516 36.60731934 114.87207031 36.4050293 114.29101562 C35.50015965 111.69367013 34.59383858 109.09683327 33.6875 106.5 C33.2244043 105.1696875 33.2244043 105.1696875 32.75195312 103.8125 C30.49618237 97.35387215 28.13494378 90.94616674 25.67578125 84.5625 C22.48383583 76.22137041 19.47261485 67.8184858 16.5625 59.375 C16.19616455 58.34375 15.8298291 57.3125 15.45239258 56.25 C15.11876709 55.26773438 14.7851416 54.28546875 14.44140625 53.2734375 C14.13920166 52.40122559 13.83699707 51.52901367 13.52563477 50.63037109 C13 48 13 48 13.55419922 45.12646484 C14.11747265 41.17614747 13.08319141 38.33216296 11.69140625 34.703125 C11.44583481 34.02828064 11.20026337 33.35343628 10.94725037 32.65814209 C10.16540454 30.51701533 9.36480363 28.38353513 8.5625 26.25 C7.76759891 24.10095643 6.9766367 21.95053012 6.1884613 19.79901123 C5.69797336 18.46396715 5.20288588 17.13060214 4.70277405 15.7991333 C3 11.21844588 3 11.21844588 3 9 C2.34 9 1.68 9 1 9 C1 48.6 1 88.2 1 129 C0.67 129 0.34 129 0 129 C0 86.43 0 43.86 0 0 Z " fill="#890FEE" transform="translate(228,237)"/>
<path d="M0 0 C1.35015859 4.05047576 0.62084998 6.7920168 0 11 C0.66 11.33 1.32 11.66 2 12 C1.67 12.33 1.34 12.66 1 13 C0.92604216 15.93701 0.91698428 18.85009796 0.94995117 21.78662109 C0.95623032 22.70853745 0.96250946 23.6304538 0.96897888 24.58030701 C0.98286693 26.58943484 0.99881098 28.59854925 1.01653099 30.60764694 C1.04305876 33.78421596 1.06099667 36.96071648 1.07600403 40.13735962 C1.11887104 49.17177838 1.16652169 58.20606075 1.24682617 67.24023438 C1.29525692 72.75916412 1.32431943 78.27790172 1.34057045 83.79701614 C1.35049487 85.90464556 1.36774517 88.01225332 1.39235497 90.11976242 C1.42597702 93.06494483 1.4349791 96.00923986 1.43823242 98.95458984 C1.46216064 100.26853477 1.46216064 100.26853477 1.48657227 101.60902405 C1.45675958 107.50775111 1.45675958 107.50775111 -0.87666321 110.0224762 C-5.03291137 111.93589451 -8.89021105 112.11585216 -13.4140625 112.02734375 C-14.42210937 112.01509766 -15.43015625 112.00285156 -16.46875 111.99023438 C-18.58079561 111.95494648 -20.69278095 111.91585579 -22.8046875 111.87304688 C-23.81015625 111.86208984 -24.815625 111.85113281 -25.8515625 111.83984375 C-26.76760254 111.82300537 -27.68364258 111.80616699 -28.62744141 111.78881836 C-31.2682433 111.83306746 -31.2682433 111.83306746 -34 114 C-34 113.01 -34 112.02 -34 111 C-35.25296875 111.04640625 -36.5059375 111.0928125 -37.796875 111.140625 C-39.44789281 111.17814813 -41.09893642 111.21454771 -42.75 111.25 C-43.575 111.28351563 -44.4 111.31703125 -45.25 111.3515625 C-46.44882813 111.37089844 -46.44882813 111.37089844 -47.671875 111.390625 C-48.4050293 111.41157227 -49.13818359 111.43251953 -49.89355469 111.45410156 C-53.08416654 110.76627842 -54.05002758 109.62765131 -56 107 C-56.5941467 103.87482148 -56.5225002 100.78605081 -56.48242188 97.61328125 C-56.48633438 96.6632724 -56.49024689 95.71326355 -56.49427795 94.73446655 C-56.50025364 92.67303124 -56.49708172 90.61155378 -56.4858551 88.55014038 C-56.46862451 85.28874777 -56.47608384 82.02824397 -56.4901123 78.7668457 C-56.51979424 70.66804341 -56.50655866 62.56940987 -56.49493408 54.47058105 C-56.48674151 47.62610355 -56.49462276 40.78201375 -56.52406311 33.93759155 C-56.5311732 30.72222996 -56.51445905 27.50754459 -56.49694824 24.29223633 C-56.50265456 22.32372673 -56.50947107 20.35521993 -56.51757812 18.38671875 C-56.50626358 17.49101166 -56.49494904 16.59530457 -56.48329163 15.67245483 C-56.49326222 10.65019984 -56.49326222 10.65019984 -59.03015137 6.41333008 C-59.68020142 5.94693115 -60.33025146 5.48053223 -61 5 C-60.67 4.34 -60.34 3.68 -60 3 C-52.63869395 8.11370113 -52.63869395 8.11370113 -51.2620697 12.17938042 C-51.01855298 14.68612742 -51.00881267 17.08984487 -51.09179688 19.60717773 C-51.09062866 20.54454269 -51.08946045 21.48190765 -51.08825684 22.44767761 C-51.09380455 25.52785497 -51.15589804 28.60409814 -51.21875 31.68359375 C-51.23368035 33.82591131 -51.24506362 35.96825627 -51.25305176 38.11061096 C-51.28352288 43.73538302 -51.3620441 49.35848894 -51.45068359 54.98260498 C-51.54711208 61.73796914 -51.58367751 68.49389207 -51.63031006 75.24974823 C-51.70775602 85.50098911 -51.86107616 95.7485781 -52 106 C-35.83 106 -19.66 106 -3 106 C-3 104.68 -3 103.36 -3 102 C-2.34 102 -1.68 102 -1 102 C-1.00222061 100.75163361 -1.00444122 99.50326721 -1.00672913 98.21707153 C-1.02696741 86.47421151 -1.04197547 74.731355 -1.05181217 62.98848152 C-1.05703924 56.95080974 -1.06413373 50.91315199 -1.07543945 44.87548828 C-1.08627454 39.05297583 -1.09227816 33.23047692 -1.09487724 27.40795517 C-1.09673037 25.18231874 -1.10034883 22.95668309 -1.10573006 20.7310524 C-1.1129487 17.62293118 -1.11399059 14.51486648 -1.11352539 11.40673828 C-1.11712067 10.47885498 -1.12071594 9.55097168 -1.12442017 8.5949707 C-1.1230455 7.75080597 -1.12167084 6.90664124 -1.12025452 6.03689575 C-1.12117631 5.30130495 -1.1220981 4.56571415 -1.12304783 3.80783272 C-1 2 -1 2 0 0 Z " fill="#8404EF" transform="translate(232,260)"/>
<path d="M0 0 C2.35539693 1.97527523 4.68097428 3.98220855 7 6 C7.99 6.845625 8.98 7.69125 10 8.5625 C12 11 12 11 11.93673706 13.37785339 C10.70640523 16.82184058 8.80476893 18.05533363 6.01220703 20.3918457 C0.07770063 26.24110918 -0.13501199 32.26158175 -0.28051567 40.28476429 C-0.28558217 43.43441186 -0.24127407 46.58118678 -0.1953125 49.73046875 C-0.19910435 51.93436333 -0.20730158 54.13825432 -0.21969604 56.34211731 C-0.24041587 62.11144757 -0.20171357 67.87887202 -0.15020752 73.64794922 C-0.10819484 79.54722154 -0.12296458 85.44632977 -0.1328125 91.34570312 C-0.14379979 102.89767159 -0.09194913 114.44842399 0 126 C-12.85057827 132.71474689 -41.48750347 131.54230662 -55.18359375 127.328125 C-57.85879569 125.37206337 -58.32418096 123.24640916 -59.3125 120.125 C-59.65925781 119.07570313 -60.00601562 118.02640625 -60.36328125 116.9453125 C-61 114 -61 114 -60 110 C-58.02 114.95 -56.04 119.9 -54 125 C-49.31854289 125.02291088 -44.63727898 125.04283732 -39.95581055 125.05493164 C-38.36205386 125.05997157 -36.76830181 125.0668035 -35.17456055 125.07543945 C-32.88849747 125.08751999 -30.60249533 125.09323155 -28.31640625 125.09765625 C-27.59973282 125.10281754 -26.88305939 125.10797882 -26.14466858 125.11329651 C-24.42936328 125.11349263 -22.71418734 125.06192007 -21 125 C-20.67 124.67 -20.34 124.34 -20 124 C-17.47403741 123.76346477 -14.96892793 123.57826308 -12.4375 123.4375 C-11.72658203 123.39431641 -11.01566406 123.35113281 -10.28320312 123.30664062 C-8.52238088 123.20028223 -6.7612168 123.09961154 -5 123 C-5.00452431 121.18168922 -5.00452431 121.18168922 -5.00914001 119.3266449 C-5.03302997 107.89417092 -5.0201915 96.46224735 -4.97153378 85.02984524 C-4.94769547 79.15244933 -4.9367296 73.27562036 -4.95532227 67.39819336 C-4.97279481 61.72440745 -4.9562704 56.05163939 -4.91632271 50.37797737 C-4.90703939 48.21510638 -4.90993886 46.05214716 -4.92530632 43.88931084 C-4.94476776 40.85533132 -4.92063939 37.82455642 -4.88647461 34.79077148 C-4.9022908 33.89956604 -4.91810699 33.0083606 -4.93440247 32.09014893 C-4.82747306 27.14461901 -4.16127911 24.65087018 -0.56959534 21.13807678 C0.04888999 20.62314195 0.66737532 20.10820711 1.30460262 19.57766819 C4.23924661 16.84680726 4.9355201 14.50662777 5.4375 10.5625 C4.88895859 6.09580569 3.31071547 4.89687603 0 2 C0 1.34 0 0.68 0 0 Z " fill="#8502F1" transform="translate(327,243)"/>
<path d="M0 0 C4.10829319 0.86669973 8.30824633 0.84902112 12.49609375 0.95703125 C15.3515625 1.49609375 15.3515625 1.49609375 17.0390625 3.015625 C18.88499351 6.50421486 20.22204817 10.09228132 21.5390625 13.80859375 C21.83659424 14.63238525 22.13412598 15.45617676 22.44067383 16.30493164 C23.42095171 19.03187725 24.38820348 21.76312699 25.3515625 24.49609375 C25.69445312 25.46836914 26.03734375 26.44064453 26.390625 27.44238281 C28.73816013 34.11764244 31.05396727 40.80349716 33.3515625 47.49609375 C33.59068359 48.19009277 33.82980469 48.8840918 34.07617188 49.59912109 C35.77714947 54.54634901 37.40707384 59.34267019 38.3515625 64.49609375 C34.4765625 62.74609375 34.4765625 62.74609375 33.3515625 60.49609375 C33.22523438 59.32046875 33.09890625 58.14484375 32.96875 56.93359375 C32.42178877 52.21738332 31.03924283 47.96307264 29.4765625 43.49609375 C29.22003906 42.74070313 28.96351563 41.9853125 28.69921875 41.20703125 C27.22875303 36.90647322 25.67077199 32.64435239 24.06152344 28.39404297 C22.54546675 24.3411459 21.1521475 20.24298991 19.73046875 16.15625 C18.11399402 11.86549413 16.21376722 7.68605438 14.3515625 3.49609375 C-2.4784375 3.49609375 -19.3084375 3.49609375 -36.6484375 3.49609375 C-37.84087374 5.88096622 -37.76060874 7.29879104 -37.73936462 9.95922852 C-37.73470184 10.89832565 -37.73003906 11.83742279 -37.72523499 12.80497742 C-37.71528 13.83870987 -37.70532501 14.87244232 -37.69506836 15.9375 C-37.68228969 18.1899396 -37.66984954 20.44238114 -37.65769958 22.69482422 C-37.64978331 23.8941156 -37.64186703 25.09340698 -37.63371086 26.32904053 C-37.59169082 34.00006104 -37.60343911 41.67123272 -37.60359859 49.34234619 C-37.60145773 56.08617889 -37.58097907 62.82916491 -37.52172852 69.57275391 C-37.46458001 76.09169184 -37.46011521 82.60949156 -37.48642159 89.12863159 C-37.48765464 91.61007135 -37.4712104 94.09158705 -37.43650627 96.57278442 C-37.1635524 117.18284161 -37.1635524 117.18284161 -40.9524231 122.12597656 C-43.72094727 124.78515625 -43.72094727 124.78515625 -46.50172424 126.72119141 C-48.90391871 128.31370752 -48.90391871 128.31370752 -49.08140564 131.05224609 C-48.49698136 134.3509736 -46.87582089 136.05989317 -44.6484375 138.49609375 C-49.92116477 136.13245739 -49.92116477 136.13245739 -51.6484375 133.49609375 C-51.3359375 129.80859375 -51.3359375 129.80859375 -50.6484375 126.49609375 C-49.1634375 126.00109375 -49.1634375 126.00109375 -47.6484375 125.49609375 C-47.6484375 124.83609375 -47.6484375 124.17609375 -47.6484375 123.49609375 C-45.2734375 120.87109375 -45.2734375 120.87109375 -42.6484375 118.49609375 C-41.9884375 118.49609375 -41.3284375 118.49609375 -40.6484375 118.49609375 C-40.6484375 114.86609375 -40.6484375 111.23609375 -40.6484375 107.49609375 C-42.1334375 108.48609375 -42.1334375 108.48609375 -43.6484375 109.49609375 C-45.17691852 106.43913171 -44.14806197 103.82692354 -43.6484375 100.49609375 C-43.6484375 99.38234375 -43.6484375 98.26859375 -43.6484375 97.12109375 C-43.6484375 94.49609375 -43.6484375 94.49609375 -42.6484375 93.49609375 C-42.4375393 91.39589921 -42.27966523 89.29026753 -42.1484375 87.18359375 C-41.75346787 80.8852388 -41.75346787 80.8852388 -41.13696289 78.6010437 C-40.58101467 76.20558341 -40.53560605 74.07655508 -40.55078125 71.61767578 C-40.55408447 70.64790802 -40.5573877 69.67814026 -40.56079102 68.6789856 C-40.57323853 67.10732132 -40.57323853 67.10732132 -40.5859375 65.50390625 C-40.58972412 64.40754852 -40.59351074 63.3111908 -40.59741211 62.18161011 C-40.61364023 57.50530269 -40.64129466 52.82908392 -40.66894531 48.15283203 C-40.75136743 32.89823366 -40.51189468 17.72801801 -39.6484375 2.49609375 C-38.20788235 2.16237913 -36.76647119 1.83235819 -35.32470703 1.50390625 C-34.52211456 1.31973145 -33.71952209 1.13555664 -32.89260864 0.94580078 C-30.37557719 0.44141557 -28.08404504 0.35721334 -25.5234375 0.49609375 C-16.25268323 0.72500126 -9.39701389 -2.71427692 0 0 Z " fill="#5407A1" transform="translate(215.6484375,124.50390625)"/>
<path d="M0 0 C6.96003447 -0.02526838 13.9200572 -0.04283222 20.88012695 -0.05493164 C23.24992312 -0.05997341 25.61971615 -0.06680665 27.98950195 -0.07543945 C31.38754039 -0.0875119 34.78553785 -0.09322971 38.18359375 -0.09765625 C39.25024765 -0.10281754 40.31690155 -0.10797882 41.4158783 -0.11329651 C42.88729027 -0.11340981 42.88729027 -0.11340981 44.38842773 -0.11352539 C45.25668686 -0.115746 46.12494598 -0.11796661 47.01951599 -0.12025452 C49 0 49 0 50 1 C50.09565123 2.4674896 50.12188309 3.93956884 50.12025452 5.41017151 C50.12162918 6.36234558 50.12300385 7.31451965 50.12442017 8.29554749 C50.11902725 9.87510475 50.11902725 9.87510475 50.11352539 11.48657227 C50.11367142 12.58887177 50.11381744 13.69117126 50.1139679 14.82687378 C50.11326821 18.49007092 50.10547324 22.15321794 50.09765625 25.81640625 C50.09579227 28.34846468 50.09436827 30.88052348 50.09336853 33.4125824 C50.08993346 39.40848249 50.08204269 45.40436089 50.07201904 51.40025228 C50.06085677 58.22481058 50.05534717 65.04936972 50.05032361 71.87393486 C50.03986004 85.91596664 50.0222613 99.95798233 50 114 C50.66 114 51.32 114 52 114 C53.54296875 115.609375 53.54296875 115.609375 55.1875 117.75 C56.01314453 118.79414063 56.01314453 118.79414063 56.85546875 119.859375 C58 122 58 122 57.5715332 124.13378906 C57.38292725 124.74963867 57.19432129 125.36548828 57 126 C52.6932277 123.46220596 49.23415296 120.51194398 47 116 C45.06941449 107.5312639 45.83922579 98.48701609 46.0234375 89.8671875 C46.04210556 87.30317957 46.05633223 84.7391358 46.0663147 82.17507935 C46.10048404 76.1359664 46.17913533 70.09904765 46.27980959 64.06081116 C46.39200377 57.18068033 46.44666964 50.30045688 46.49676394 43.41963744 C46.60099054 29.27856009 46.78420134 15.13979223 47 1 C31.49 1 15.98 1 0 1 C0 0.67 0 0.34 0 0 Z " fill="#9827F3" transform="translate(275,129)"/>
<path d="M0 0 C3.3409588 2.1582644 6.44568812 4.211341 7.66166496 8.13506699 C7.90027818 10.70072518 7.93154535 13.19252062 7.88647461 15.76904297 C7.89725037 16.73552261 7.90802612 17.70200226 7.91912842 18.69776917 C7.94645265 21.88002416 7.92466692 25.05992608 7.90234375 28.2421875 C7.91172948 30.45323149 7.92418766 32.6642644 7.93959045 34.87527466 C7.97182423 40.68531099 7.96237064 46.49455821 7.94421387 52.30462646 C7.93305836 58.23702643 7.96135713 64.16922406 7.98632812 70.1015625 C8.02948366 81.73451586 8.02859716 93.36701721 8 105 C15.24486551 105.02526739 22.48971974 105.0428318 29.73461914 105.05493164 C32.20142033 105.05997356 34.66821852 105.06680691 37.13500977 105.07543945 C40.67204529 105.08751125 44.20904145 105.09322956 47.74609375 105.09765625 C48.85649521 105.10281754 49.96689667 105.10797882 51.11094666 105.11329651 C52.13192947 105.11337204 53.15291229 105.11344757 54.20483398 105.11352539 C55.56051735 105.11685631 55.56051735 105.11685631 56.94358826 105.12025452 C58.99253581 105.22900462 58.99253581 105.22900462 60 104 C60.12489698 101.59749468 60.1860079 99.22227215 60.20532227 96.81811523 C60.21522186 96.06694427 60.22512146 95.31577332 60.23532104 94.5418396 C60.26702546 92.04745688 60.29172859 89.55305509 60.31640625 87.05859375 C60.33696807 85.33365877 60.35796433 83.60872892 60.37937927 81.88380432 C60.43467971 77.33493186 60.48405369 72.78601333 60.53222656 68.23706055 C60.58238354 63.59875367 60.63809983 58.96051402 60.69335938 54.32226562 C60.80103839 45.21490112 60.90246157 36.10747835 61 27 C61.33 27 61.66 27 62 27 C62.09260216 37.11804608 62.16371516 47.23599166 62.20724869 57.35437489 C62.22814066 62.05256408 62.25648746 66.75046377 62.30175781 71.44848633 C62.34515848 75.98074381 62.36912497 80.51272252 62.37950897 85.04517174 C62.38691078 86.77600177 62.40136458 88.50681622 62.42292023 90.23752785 C62.45187826 92.65844547 62.45595932 95.07820517 62.45410156 97.49926758 C62.47567322 98.57712524 62.47567322 98.57712524 62.49768066 99.67675781 C62.47072601 102.91420373 62.43243732 104.55644372 60.12234497 106.92593384 C56.0160662 109.0040197 52.12019838 109.11605582 47.5859375 109.02734375 C46.57789063 109.01509766 45.56984375 109.00285156 44.53125 108.99023438 C42.41920439 108.95494648 40.30721905 108.91585579 38.1953125 108.87304688 C37.18984375 108.86208984 36.184375 108.85113281 35.1484375 108.83984375 C34.23239746 108.82300537 33.31635742 108.80616699 32.37255859 108.78881836 C29.7317567 108.83306746 29.7317567 108.83306746 27 111 C27 110.01 27 109.02 27 108 C25.74703125 108.04640625 24.4940625 108.0928125 23.203125 108.140625 C21.55210719 108.17814813 19.90106358 108.21454771 18.25 108.25 C17.425 108.28351563 16.6 108.31703125 15.75 108.3515625 C14.55117187 108.37089844 14.55117187 108.37089844 13.328125 108.390625 C12.5949707 108.41157227 11.86181641 108.43251953 11.10644531 108.45410156 C7.91583346 107.76627842 6.94997242 106.62765131 5 104 C4.4058533 100.87482148 4.4774998 97.78605081 4.51757812 94.61328125 C4.51366562 93.6632724 4.50975311 92.71326355 4.50572205 91.73446655 C4.49974636 89.67303124 4.50291828 87.61155378 4.5141449 85.55014038 C4.53137549 82.28874777 4.52391616 79.02824397 4.5098877 75.7668457 C4.48020576 67.66804341 4.49344134 59.56940987 4.50506592 51.47058105 C4.51325849 44.62610355 4.50537724 37.78201375 4.47593689 30.93759155 C4.4688268 27.72222996 4.48554095 24.50754459 4.50305176 21.29223633 C4.49734544 19.32372673 4.49052893 17.35521993 4.48242188 15.38671875 C4.49373642 14.49101166 4.50505096 13.59530457 4.51670837 12.67245483 C4.5329222 7.68606472 4.5329222 7.68606472 1.96984863 3.53833008 C1.31979858 3.03068115 0.66974854 2.52303223 0 2 C0 1.34 0 0.68 0 0 Z " fill="#6303BB" transform="translate(171,263)"/>
<path d="M0 0 C0.99 0.495 0.99 0.495 2 1 C0.85459775 2.31287621 -0.29133433 3.62529021 -1.4375 4.9375 C-2.39462891 6.03384766 -2.39462891 6.03384766 -3.37109375 7.15234375 C-4.22541459 8.12139353 -5.08651175 9.08651175 -6 10 C-6.12004224 13.03810364 -6.17549624 16.05447562 -6.18945312 19.09375 C-6.19774643 20.04813965 -6.20603973 21.0025293 -6.21458435 21.98583984 C-6.23202674 24.06533114 -6.24718196 26.14484255 -6.26036072 28.22436523 C-6.28131158 31.50965634 -6.30833972 34.79484616 -6.33703613 38.08007812 C-6.39684841 45.05334694 -6.4489575 52.0266622 -6.5 59 C-6.55911939 67.07678855 -6.62132954 75.15352711 -6.69187927 83.23022461 C-6.71856127 86.47703466 -6.7393111 89.72384944 -6.7598877 92.97070312 C-6.77648314 94.94922121 -6.79335431 96.92773701 -6.81054688 98.90625 C-6.81473129 99.81745605 -6.81891571 100.72866211 -6.82322693 101.66748047 C-6.88615654 107.88615654 -6.88615654 107.88615654 -8 109 C-11.2098693 109.26998901 -14.41230859 109.44611437 -17.62890625 109.60546875 C-21.10944277 109.4970552 -21.10944277 109.4970552 -24 111 C-28.66630114 111.29076967 -33.33527091 111.31397479 -38.00976562 111.35009766 C-39.58315822 111.3666631 -41.15647537 111.39396155 -42.72949219 111.43212891 C-44.9945387 111.48682869 -47.25782 111.50875774 -49.5234375 111.5234375 C-50.22665131 111.54610687 -50.92986511 111.56877625 -51.65438843 111.59213257 C-53.64599609 111.58349609 -53.64599609 111.58349609 -57 111 C-58.89208984 108.63061523 -58.89208984 108.63061523 -60 106 C-60.59554688 104.70642578 -60.59554688 104.70642578 -61.203125 103.38671875 C-63.5420743 97.35606962 -64.43577521 93.34134053 -63 87 C-63.99 86.67 -64.98 86.34 -66 86 C-66 83.36 -66 80.72 -66 78 C-64.31515758 80.52726364 -63.36342684 82.43629932 -62.34375 85.23828125 C-62.04339844 86.05876953 -61.74304688 86.87925781 -61.43359375 87.72460938 C-61.12550781 88.57861328 -60.81742187 89.43261719 -60.5 90.3125 C-60.19191406 91.15490234 -59.88382812 91.99730469 -59.56640625 92.86523438 C-57.97745634 97.22632223 -56.46847444 101.59457669 -55 106 C-31.735 106.495 -31.735 106.495 -8 107 C-8.0928125 99.94625 -8.185625 92.8925 -8.28125 85.625 C-8.32213861 81.14968052 -8.36065008 76.67459214 -8.390625 72.19921875 C-8.43840429 65.09928414 -8.49485478 58.00017679 -8.60351562 50.90087891 C-8.69059651 45.17550613 -8.73830729 39.45102065 -8.75901794 33.72503662 C-8.77377203 31.54329462 -8.80258474 29.36159987 -8.84584045 27.18023682 C-9.17247099 10.02221205 -9.17247099 10.02221205 -6.16577148 4.83642578 C-4.20200374 2.85122567 -2.4310852 1.35655622 0 0 Z " fill="#8C07F9" transform="translate(330,258)"/>
<path d="M0 0 C0.33 0 0.66 0 1 0 C1.23416981 14.56024558 1.41021784 29.12024019 1.51812172 43.68198967 C1.56956835 50.44423447 1.63963245 57.20530571 1.75439453 63.96679688 C1.86516133 70.49603955 1.92289732 77.02452286 1.94877243 83.5546608 C1.96720387 86.04182205 2.00319831 88.52891909 2.05730057 91.01556015 C2.48906993 111.68879042 2.48906993 111.68879042 -1.32794189 116.66949463 C-4.12353516 119.35595703 -4.12353516 119.35595703 -6.94448853 121.32522583 C-7.62280731 121.87790131 -8.3011261 122.43057678 -9 123 C-9.26457419 125.09984115 -9.26457419 125.09984115 -8 127 C-6.51798414 128.14099412 -5.01187949 129.25090301 -3.49243164 130.34155273 C1.4981508 135.21494676 1.87932205 139.45167708 2.02172852 146.10961914 C2.05213412 150.25440775 1.9715729 154.39155797 1.87890625 158.53515625 C1.86210371 160.7418711 1.84930032 162.94861971 1.84031677 165.15538025 C1.80608247 170.94141627 1.71778826 176.72539326 1.61798096 182.51062012 C1.52563153 188.42281239 1.48474874 194.33534001 1.43945312 200.24804688 C1.34315901 211.83293202 1.18971346 223.41629427 1 235 C0.67 235 0.34 235 0 235 C0 203.32 0 171.64 0 139 C-1.32 138.34 -2.64 137.68 -4 137 C-5.80343518 135.45615019 -7.55034369 133.84491339 -9.25 132.1875 C-10.14203125 131.33542969 -11.0340625 130.48335937 -11.953125 129.60546875 C-14 127 -14 127 -14.55859375 124.47265625 C-13.79630276 121.09831919 -12.27893975 119.6480393 -9.8125 117.25 C-8.64654297 116.08210938 -8.64654297 116.08210938 -7.45703125 114.890625 C-5 113 -5 113 0 112 C0 75.04 0 38.08 0 0 Z " fill="#9421EE" transform="translate(180,131)"/>
<path d="M0 0 C2.35539693 1.97527523 4.68097428 3.98220855 7 6 C7.99 6.845625 8.98 7.69125 10 8.5625 C12 11 12 11 11.93673706 13.37785339 C10.70640523 16.82184058 8.80476893 18.05533363 6.01220703 20.3918457 C0.07770063 26.24110918 -0.13501199 32.26158175 -0.28051567 40.28476429 C-0.28558217 43.43441186 -0.24127407 46.58118678 -0.1953125 49.73046875 C-0.19910435 51.93436333 -0.20730158 54.13825432 -0.21969604 56.34211731 C-0.24041587 62.11144757 -0.20171357 67.87887202 -0.15020752 73.64794922 C-0.10819484 79.54722154 -0.12296458 85.44632977 -0.1328125 91.34570312 C-0.14379979 102.89767159 -0.09194913 114.44842399 0 126 C-12.85057827 132.71474689 -41.48750347 131.54230662 -55.18359375 127.328125 C-57.85879569 125.37206337 -58.32418096 123.24640916 -59.3125 120.125 C-59.65925781 119.07570313 -60.00601562 118.02640625 -60.36328125 116.9453125 C-61 114 -61 114 -60 110 C-58.02 114.95 -56.04 119.9 -54 125 C-46.75512951 125.02464113 -39.51028318 125.0428318 -32.26538086 125.05493164 C-29.79857967 125.05997356 -27.33178148 125.06680691 -24.86499023 125.07543945 C-21.32795471 125.08751125 -17.79095855 125.09322956 -14.25390625 125.09765625 C-13.14350479 125.10281754 -12.03310333 125.10797882 -10.88905334 125.11329651 C-9.86807053 125.11337204 -8.84708771 125.11344757 -7.79516602 125.11352539 C-6.43948265 125.11685631 -6.43948265 125.11685631 -5.05641174 125.12025452 C-3.00746419 125.22900462 -3.00746419 125.22900462 -2 124 C-1.92790659 120.97806537 -1.92018519 117.978727 -1.95336914 114.95727539 C-1.96615023 112.98788152 -1.97859014 111.01848541 -1.99073792 109.04908752 C-1.99865419 107.99851229 -2.00657047 106.94793705 -2.01472664 105.8655262 C-2.05672373 99.14777637 -2.04499829 92.42985481 -2.04483891 85.71199894 C-2.0478321 79.80649938 -2.06841349 73.90205713 -2.12670898 67.99682617 C-2.1820097 62.28930514 -2.18829955 56.58355885 -2.16201591 50.87585258 C-2.16078398 48.70421556 -2.17719579 46.53249123 -2.21193123 44.36113167 C-2.48470942 26.34851802 -2.48470942 26.34851802 1.26882935 21.55587769 C4.01000977 18.90014648 4.01000977 18.90014648 6.75563049 16.8813324 C9.22698294 15.16168015 9.22698294 15.16168015 9.81187439 12.25624084 C9.87395584 11.51168137 9.93603729 10.76712189 10 10 C9.46375 9.79375 8.9275 9.5875 8.375 9.375 C5.08021991 7.46749574 2.40636372 4.95180616 0 2 C0 1.34 0 0.68 0 0 Z " fill="#5F03B1" transform="translate(327,243)"/>
<path d="M0 0 C4.10829319 0.86669973 8.30824633 0.84902112 12.49609375 0.95703125 C15.3515625 1.49609375 15.3515625 1.49609375 17.0390625 3.015625 C18.88499351 6.50421486 20.22204817 10.09228132 21.5390625 13.80859375 C21.83659424 14.63238525 22.13412598 15.45617676 22.44067383 16.30493164 C23.42095171 19.03187725 24.38820348 21.76312699 25.3515625 24.49609375 C25.69445312 25.46836914 26.03734375 26.44064453 26.390625 27.44238281 C28.73816013 34.11764244 31.05396727 40.80349716 33.3515625 47.49609375 C33.59068359 48.19009277 33.82980469 48.8840918 34.07617188 49.59912109 C35.77714947 54.54634901 37.40707384 59.34267019 38.3515625 64.49609375 C34.4765625 62.74609375 34.4765625 62.74609375 33.3515625 60.49609375 C33.22523438 59.32046875 33.09890625 58.14484375 32.96875 56.93359375 C32.42178877 52.21738332 31.03924283 47.96307264 29.4765625 43.49609375 C29.22003906 42.74070313 28.96351563 41.9853125 28.69921875 41.20703125 C27.22875303 36.90647322 25.67077199 32.64435239 24.06152344 28.39404297 C22.54546675 24.3411459 21.1521475 20.24298991 19.73046875 16.15625 C18.11399402 11.86549413 16.21376722 7.68605438 14.3515625 3.49609375 C-7.4284375 3.00109375 -7.4284375 3.00109375 -29.6484375 2.49609375 C-29.6484375 2.16609375 -29.6484375 1.83609375 -29.6484375 1.49609375 C-28.16730469 1.29693359 -28.16730469 1.29693359 -26.65625 1.09375 C-25.37492188 0.91714844 -24.09359375 0.74054688 -22.7734375 0.55859375 C-20.85917969 0.29755859 -20.85917969 0.29755859 -18.90625 0.03125 C-6.78517618 -1.95986165 -6.78517618 -1.95986165 0 0 Z " fill="#53079F" transform="translate(215.6484375,124.50390625)"/>
<path d="M0 0 C0.66 0 1.32 0 2 0 C2.01030746 1.19825409 2.02061493 2.39650818 2.03123474 3.631073 C2.12883389 14.90306943 2.23155496 26.17500899 2.33933926 37.44691277 C2.39459117 43.24242089 2.44801479 49.03793404 2.49731445 54.83349609 C2.54492454 60.42263419 2.59726611 66.01170948 2.65294075 71.60077286 C2.67337953 73.73707651 2.69209005 75.87339739 2.70907402 78.00973129 C2.73308432 80.99336755 2.76314347 83.97688436 2.79467773 86.96044922 C2.8004332 87.85092957 2.80618866 88.74140991 2.81211853 89.65887451 C2.73805327 93.96573026 2.73805327 93.96573026 4 98 C2.68 98 1.36 98 0 98 C0 65.66 0 33.32 0 0 Z " fill="#8800F9" transform="translate(178,270)"/>
<path d="M0 0 C2.2565298 2.2565298 2.79306283 3.80638779 3.83984375 6.796875 C4.18080078 7.7559375 4.52175781 8.715 4.87304688 9.703125 C5.39995117 11.21132812 5.39995117 11.21132812 5.9375 12.75 C8.02212641 18.69060513 10.12890709 24.38721556 13 30 C13.80119477 32.19027922 14.55168794 34.39978172 15.25 36.625 C15.60578125 37.73101562 15.9615625 38.83703125 16.328125 39.9765625 C16.99676175 42.9854279 16.85183277 44.15365067 16 47 C14.1445353 41.91113754 12.29322861 36.82078954 10.44580078 31.72900391 C9.81641577 29.99616433 9.18588584 28.26374016 8.55419922 26.53173828 C7.6477179 24.04567413 6.74533134 21.55815716 5.84375 19.0703125 C5.55939087 18.29317902 5.27503174 17.51604553 4.98205566 16.71536255 C3 11.22774341 3 11.22774341 3 9 C2.34 9 1.68 9 1 9 C1 48.6 1 88.2 1 129 C0.67 129 0.34 129 0 129 C0 86.43 0 43.86 0 0 Z " fill="#A149E5" transform="translate(228,237)"/>
<path d="M0 0 C0.66 0.33 1.32 0.66 2 1 C0.85459775 2.31287621 -0.29133433 3.62529021 -1.4375 4.9375 C-2.39462891 6.03384766 -2.39462891 6.03384766 -3.37109375 7.15234375 C-4.22541459 8.12139353 -5.08651175 9.08651175 -6 10 C-6.12536856 13.04329187 -6.18612443 16.06497373 -6.20532227 19.10961914 C-6.21522186 20.06561508 -6.22512146 21.02161102 -6.23532104 22.00657654 C-6.26703852 25.18274414 -6.29173381 28.35892673 -6.31640625 31.53515625 C-6.33696694 33.73091533 -6.35796316 35.92667036 -6.37937927 38.12242126 C-6.43469139 43.91416158 -6.48406022 49.70593814 -6.53222656 55.4977417 C-6.59118519 62.44023879 -6.65746323 69.38266934 -6.72252655 76.32511139 C-6.82065098 86.8833671 -6.90942841 97.44166462 -7 108 C-22.84 108 -38.68 108 -55 108 C-55 107.67 -55 107.34 -55 107 C-39.49 107 -23.98 107 -8 107 C-8.0928125 99.94625 -8.185625 92.8925 -8.28125 85.625 C-8.32213861 81.14968052 -8.36065008 76.67459214 -8.390625 72.19921875 C-8.43840429 65.09928414 -8.49485478 58.00017679 -8.60351562 50.90087891 C-8.69059651 45.17550613 -8.73830729 39.45102065 -8.75901794 33.72503662 C-8.77377203 31.54329462 -8.80258474 29.36159987 -8.84584045 27.18023682 C-9.17247099 10.02221205 -9.17247099 10.02221205 -6.16577148 4.83642578 C-4.20200374 2.85122567 -2.4310852 1.35655622 0 0 Z " fill="#AF5AEE" transform="translate(330,258)"/>
<path d="M0 0 C6.96003447 -0.02526838 13.9200572 -0.04283222 20.88012695 -0.05493164 C23.24992312 -0.05997341 25.61971615 -0.06680665 27.98950195 -0.07543945 C31.38754039 -0.0875119 34.78553785 -0.09322971 38.18359375 -0.09765625 C39.25024765 -0.10281754 40.31690155 -0.10797882 41.4158783 -0.11329651 C42.88729027 -0.11340981 42.88729027 -0.11340981 44.38842773 -0.11352539 C45.25668686 -0.115746 46.12494598 -0.11796661 47.01951599 -0.12025452 C49 0 49 0 50 1 C50.10428875 2.83027172 50.13854374 4.66457455 50.14526367 6.49780273 C50.15164352 7.67249619 50.15802338 8.84718964 50.16459656 10.05747986 C50.16570938 11.33659744 50.1668222 12.61571503 50.16796875 13.93359375 C50.17296135 15.88870628 50.17296135 15.88870628 50.17805481 17.88331604 C50.184052 20.64658435 50.18589412 23.40982135 50.18530273 26.1730957 C50.18520109 29.71868473 50.19885231 33.26407357 50.21607494 36.80961514 C50.22985013 40.18427799 50.22928323 43.55890309 50.23046875 46.93359375 C50.23765427 48.2106871 50.24483978 49.48778046 50.25224304 50.80357361 C50.24916641 51.98141922 50.24608978 53.15926483 50.24291992 54.37280273 C50.24434494 55.41347397 50.24576996 56.4541452 50.24723816 57.52635193 C50 60 50 60 48 62 C47.67 42.2 47.34 22.4 47 2 C23.735 1.505 23.735 1.505 0 1 C0 0.67 0 0.34 0 0 Z " fill="#8B05F9" transform="translate(275,129)"/>
<path d="M0 0 C0.66 0 1.32 0 2 0 C2 0.66 2 1.32 2 2 C18.335 2.495 18.335 2.495 35 3 C35 3.99 35 4.98 35 6 C34.505 5.505 34.505 5.505 34 5 C32.4093669 4.90145578 30.81438523 4.87201306 29.22070312 4.87060547 C28.202948 4.86745331 27.18519287 4.86430115 26.13659668 4.86105347 C24.47570007 4.86408981 24.47570007 4.86408981 22.78125 4.8671875 C21.0889325 4.86575241 21.0889325 4.86575241 19.36242676 4.86428833 C16.97159774 4.86360632 14.58076689 4.86546203 12.18994141 4.86962891 C8.51590849 4.87497684 4.84199783 4.86968457 1.16796875 4.86328125 C-1.14843777 4.86394203 -3.46484422 4.86522318 -5.78125 4.8671875 C-6.8885144 4.86516327 -7.99577881 4.86313904 -9.13659668 4.86105347 C-10.15435181 4.86420563 -11.17210693 4.86735779 -12.22070312 4.87060547 C-13.57186218 4.87179886 -13.57186218 4.87179886 -14.95031738 4.87301636 C-16.99323069 4.77255394 -16.99323069 4.77255394 -18 6 C-18.1238634 8.0854182 -18.17799067 10.17500141 -18.20532227 12.26391602 C-18.21522186 12.91755127 -18.22512146 13.57118652 -18.23532104 14.24462891 C-18.26701634 16.41435064 -18.29172492 18.5840943 -18.31640625 20.75390625 C-18.33696887 22.25463952 -18.35796515 23.7553669 -18.37937927 25.25608826 C-18.43467155 29.21311693 -18.48404911 33.17019849 -18.53222656 37.12731934 C-18.5823895 41.1624016 -18.63810268 45.19740672 -18.69335938 49.23242188 C-18.8010284 57.15488277 -18.90245379 65.07740804 -19 73 C-19.33 73 -19.66 73 -20 73 C-20.04628239 64.16846012 -20.08184825 55.3369618 -20.10362434 46.50532722 C-20.11407426 42.40471243 -20.12825537 38.30418042 -20.15087891 34.20361328 C-20.1725644 30.24844419 -20.18455952 26.29335489 -20.18975449 22.33813095 C-20.19345799 20.82700214 -20.20068975 19.31587783 -20.21146011 17.80478287 C-20.22591823 15.69283768 -20.22798037 13.58122476 -20.22705078 11.46923828 C-20.231492 10.26566681 -20.23593323 9.06209534 -20.24050903 7.822052 C-20 5 -20 5 -18 3 C-14.25676478 2.40583568 -10.78305096 2 -7 2 C-3.18048626 1.73861239 -3.18048626 1.73861239 0 0 Z " fill="#5506A1" transform="translate(290,123)"/>
<path d="M0 0 C0.33 0 0.66 0 1 0 C1 42.24 1 84.48 1 128 C-0.89453748 125.15819378 -2.00192814 122.68435185 -3.1875 119.5 C-3.73470703 118.06140625 -3.73470703 118.06140625 -4.29296875 116.59375 C-5 114 -5 114 -4 111 C-3.01 113.64 -2.02 116.28 -1 119 C-0.67 79.73 -0.34 40.46 0 0 Z " fill="#951AF3" transform="translate(274,131)"/>
<path d="M0 0 C16.17 0 32.34 0 49 0 C53 9 53 9 52.75 12.0625 C52.5025 12.701875 52.255 13.34125 52 14 C50 11 50 11 48 2 C32.16 2 16.32 2 0 2 C0 1.34 0 0.68 0 0 Z " fill="#A133F7" transform="translate(181,129)"/>
<path d="M0 0 C0.99 0.495 0.99 0.495 2 1 C2 2.32 2 3.64 2 5 C2.66 5 3.32 5 4 5 C4.33 4.34 4.66 3.68 5 3 C5 3.99 5 4.98 5 6 C5.66 6 6.32 6 7 6 C10.07794799 13.87350088 11.59972035 20.53727954 11 29 C8.05746764 25.61266624 6.80561985 21.96465999 5.5 17.75 C4.14840385 13.52696307 2.79415419 9.32215982 1.1875 5.1875 C0 2 0 2 0 0 Z " fill="#9321EE" transform="translate(258,213)"/>
<path d="M0 0 C0.33 0 0.66 0 1 0 C1.0989211 4.21746325 1.17149012 8.43431121 1.21972656 12.65258789 C1.23983525 14.08727786 1.26712673 15.52188593 1.30175781 16.95629883 C1.3503146 19.01924839 1.37297406 21.08111431 1.390625 23.14453125 C1.41157227 24.38565674 1.43251953 25.62678223 1.45410156 26.90551758 C1 30 1 30 -1.02441406 31.9284668 C-1.67635742 32.28207275 -2.32830078 32.63567871 -3 33 C-4.52848102 29.94303796 -3.49962447 27.33082979 -3 24 C-3 22.88625 -3 21.7725 -3 20.625 C-3 18 -3 18 -2 17 C-1.7891018 14.89980546 -1.63122773 12.79417378 -1.5 10.6875 C-1.26911276 7.00567306 -1.05058306 3.54571783 0 0 Z " fill="#4E0A96" transform="translate(175,201)"/>
<path d="M0 0 C0.66 0 1.32 0 2 0 C12.50752257 27.47843531 12.50752257 27.47843531 14 36 C10.125 34.25 10.125 34.25 9 32 C8.87496094 30.82695312 8.74992188 29.65390625 8.62109375 28.4453125 C8.069361 23.68083667 6.64801741 19.38440923 5.0625 14.875 C4.79759766 14.10285156 4.53269531 13.33070313 4.25976562 12.53515625 C3.74663036 11.04031556 3.23065268 9.54644665 2.71142578 8.05371094 C1.78414651 5.37688416 0.88938029 2.68962348 0 0 Z " fill="#6004B5" transform="translate(240,153)"/>
<path d="M0 0 C2.35692158 2.11590998 3.51263241 3.79937479 4.5 6.80078125 C4.7475 7.53103516 4.995 8.26128906 5.25 9.01367188 C5.4975 9.77228516 5.745 10.53089844 6 11.3125 C7.69778381 16.43680062 9.55666863 21.17245011 12 26 C12.80119477 28.19027922 13.55168794 30.39978172 14.25 32.625 C14.60578125 33.73101562 14.9615625 34.83703125 15.328125 35.9765625 C15.99676175 38.9854279 15.85183277 40.15365067 15 43 C13.1445353 37.91113754 11.29322861 32.82078954 9.44580078 27.72900391 C8.81641577 25.99616433 8.18588584 24.26374016 7.55419922 22.53173828 C6.6477179 20.04567413 5.74533134 17.55815716 4.84375 15.0703125 C4.55939087 14.29317902 4.27503174 13.51604553 3.98205566 12.71536255 C2 7.22774341 2 7.22774341 2 5 C1.34 5 0.68 5 0 5 C0 3.35 0 1.7 0 0 Z " fill="#A13DEE" transform="translate(229,241)"/>
<path d="M0 0 C16.17 0 32.34 0 49 0 C45.02614599 1.98692701 43.70488611 2.22690538 39.46484375 2.125 C38.40845703 2.10953125 37.35207031 2.0940625 36.26367188 2.078125 C34.6172168 2.03945313 34.6172168 2.03945313 32.9375 2 C30.75931268 1.94901844 28.5808935 1.90693964 26.40234375 1.875 C25.43804443 1.85179687 24.47374512 1.82859375 23.48022461 1.8046875 C20.74593947 1.81716885 20.74593947 1.81716885 18 4 C18 3.01 18 2.02 18 1 C12.06 1 6.12 1 0 1 C0 0.67 0 0.34 0 0 Z " fill="#53069C" transform="translate(180,370)"/>
<path d="M0 0 C2.36038857 3.54058286 3.69776886 7.09806253 5.1875 11.0625 C5.47302734 11.79533203 5.75855469 12.52816406 6.05273438 13.28320312 C6.76356416 15.16664262 7.38849705 17.08200952 8 19 C7.67 19.66 7.34 20.32 7 21 C5.68 20.67 4.36 20.34 3 20 C1.875 12.375 1.875 12.375 3 9 C2.01 8.67 1.02 8.34 0 8 C0 5.36 0 2.72 0 0 Z " fill="#8E1CEA" transform="translate(264,336)"/>
<path d="M0 0 C1.875 0.5625 1.875 0.5625 4 2 C5.0899227 5.05178356 6 7.74156238 6 11 C6.66 11.33 7.32 11.66 8 12 C7.67 14.64 7.34 17.28 7 20 C4.82484141 16.73726211 3.68988059 13.69089287 2.375 10 C1.70597656 8.14375 1.70597656 8.14375 1.0234375 6.25 C0 3 0 3 0 0 Z " fill="#7B02E1" transform="translate(259,333)"/>
<path d="M0 0 C1.16536749 1.16536749 2.32957284 2.33191751 3.48828125 3.50390625 C4.52782169 4.53270209 5.58931662 5.53963185 6.66796875 6.52734375 C8.18519024 7.9436574 9.5989762 9.4686484 11 11 C11 12.32 11 13.64 11 15 C6.84245213 13.40094313 3.60402848 10.5714694 1 7 C0.125 3.125 0.125 3.125 0 0 Z " fill="#8D13F0" transform="translate(169,255)"/>
<path d="M0 0 C2.46968633 2.46968633 3.06997969 4.57488587 4.1875 7.875 C4.55230469 8.92429688 4.91710937 9.97359375 5.29296875 11.0546875 C5.98462433 13.93594885 6.03230681 15.27786612 5 18 C2 17 2 17 1.015625 15.21484375 C-0.85904015 9.63867138 -1.15536322 5.77681612 0 0 Z " fill="#7F01E9" transform="translate(258,201)"/>
<path d="M0 0 C0.061875 0.61875 0.12375 1.2375 0.1875 1.875 C0.455625 2.57625 0.72375 3.2775 1 4 C2.6635479 4.67441131 4.33066942 5.3400321 6 6 C8.375 8.375 8.375 8.375 10 11 C9.6015625 13.1640625 9.6015625 13.1640625 9 15 C7.48212683 13.6447561 5.98621611 12.26488729 4.5 10.875 C3.6646875 10.10929688 2.829375 9.34359375 1.96875 8.5546875 C-0.41653192 5.45950024 -0.39804797 3.8146264 0 0 Z " fill="#9621F3" transform="translate(323,240)"/>
<path d="M0 0 C2.75914165 2.38289506 3.66335433 4.65838582 5 8 C5.51175781 8.43957031 6.02351563 8.87914062 6.55078125 9.33203125 C8.56022495 11.64478721 8.30484032 13.17576517 8.1875 16.1875 C8.16042969 17.08855469 8.13335937 17.98960937 8.10546875 18.91796875 C8.07066406 19.60503906 8.03585937 20.29210937 8 21 C7.34 20.67 6.68 20.34 6 20 C5.25390625 17.70703125 5.25390625 17.70703125 4.5625 14.8125 C3.47442337 10.53236184 2.05805923 6.92011282 0 3 C0 2.01 0 1.02 0 0 Z " fill="#7101D1" transform="translate(251,312)"/>
<path d="M0 0 C0 0.33 0 0.66 0 1 C-6.93 1 -13.86 1 -21 1 C-21 0.67 -21 0.34 -21 0 C-13.60379867 -2.46540044 -7.45965441 -2.98386177 0 0 Z " fill="#4B0B93" transform="translate(216,125)"/>
<path d="M0 0 C2.34362822 2.34362822 2.33446589 3.11124448 2.625 6.3125 C2.73521484 7.51132813 2.73521484 7.51132813 2.84765625 8.734375 C3.01098163 11.16331655 3.0785046 13.56635739 3 16 C-0.71514298 11.31568929 -1.2169133 7.96511581 -1 2 C-0.67 1.34 -0.34 0.68 0 0 Z " fill="#9016F4" transform="translate(266,226)"/>
<path d="M0 0 C2.42776667 1.29480889 3.76967674 2.35838519 4.7109375 4.98046875 C5.19782198 6.9738726 5.60391861 8.98658625 6 11 C5.01 11.33 4.02 11.66 3 12 C-0.42857143 4.71428571 -0.42857143 4.71428571 0 0 Z " fill="#8A0DF0" transform="translate(269,355)"/>
<path d="M0 0 C0.33 0.99 0.66 1.98 1 3 C-0.2375 4.0828125 -0.2375 4.0828125 -1.5 5.1875 C-4.14606805 7.70733642 -4.14606805 7.70733642 -4.5625 10.5 C-3.82699839 13.76889606 -2.23567043 15.55473547 0 18 C-5.27272727 15.63636364 -5.27272727 15.63636364 -7 13 C-6.6875 9.3125 -6.6875 9.3125 -6 6 C-5.01 5.67 -4.02 5.34 -3 5 C-3 4.34 -3 3.68 -3 3 C-1.5 1.375 -1.5 1.375 0 0 Z " fill="#4F0898" transform="translate(171,245)"/>
<path d="M0 0 C0.66 0 1.32 0 2 0 C4.28062828 3.42094242 4.21925007 4.68187222 4.125 8.6875 C4.10695313 9.68136719 4.08890625 10.67523438 4.0703125 11.69921875 C4.03550781 12.83810547 4.03550781 12.83810547 4 14 C0.73262697 10.73262697 0.04327104 7.16831802 -0.125 2.625 C-0.08375 1.75875 -0.0425 0.8925 0 0 Z " fill="#9216F5" transform="translate(254,198)"/>
<path d="M0 0 C0.33 0 0.66 0 1 0 C1 8.25 1 16.5 1 25 C-0.32 25.33 -1.64 25.66 -3 26 C-2.01 24.515 -2.01 24.515 -1 23 C-0.63303819 20.48497823 -0.63303819 20.48497823 -0.5859375 17.67578125 C-0.54726563 16.64775391 -0.50859375 15.61972656 -0.46875 14.56054688 C-0.4378125 13.48869141 -0.406875 12.41683594 -0.375 11.3125 C-0.33632813 10.22904297 -0.29765625 9.14558594 -0.2578125 8.02929688 C-0.16349491 5.35303533 -0.07789995 2.67678157 0 0 Z " fill="#5905A5" transform="translate(326,344)"/>
<path d="M0 0 C2.34914492 2.34914492 2.73140357 3.95679446 3.625 7.125 C3.88539063 8.03507812 4.14578125 8.94515625 4.4140625 9.8828125 C4.70410156 10.93082031 4.70410156 10.93082031 5 12 C2.5625 10.9375 2.5625 10.9375 0 9 C-1.48235294 2.96470588 -1.48235294 2.96470588 0 0 Z " fill="#8C0EF3" transform="translate(259,324)"/>
<path d="M0 0 C0.66 0.33 1.32 0.66 2 1 C2.6328125 3.06640625 2.6328125 3.06640625 3.125 5.5625 C3.29257813 6.38878906 3.46015625 7.21507812 3.6328125 8.06640625 C3.75398437 8.70449219 3.87515625 9.34257812 4 10 C2.05078125 9.22265625 2.05078125 9.22265625 0 8 C-0.8125 4.4375 -0.8125 4.4375 -1 1 C-0.67 0.67 -0.34 0.34 0 0 Z " fill="#8402F1" transform="translate(241,158)"/>
<path d="M0 0 C2.29284618 2.29284618 2.6796154 3.72933756 3.5625 6.8125 C3.81128906 7.66457031 4.06007812 8.51664063 4.31640625 9.39453125 C4.9783024 11.91730116 5.51695281 14.43754969 6 17 C5.67 16.01 5.34 15.02 5 14 C4.01 14 3.02 14 2 14 C2.04125 13.278125 2.0825 12.55625 2.125 11.8125 C1.98987748 8.77224323 1.14573127 6.79271998 0 4 C0 2.68 0 1.36 0 0 Z " fill="#7B02E2" transform="translate(231,129)"/>
<path d="M0 0 C2.5625 1.5 2.5625 1.5 5 4 C5.15374792 6.87728254 4.61846819 9.14553142 4 12 C2.09681116 9.14521674 1.5380901 7.58058692 0.875 4.3125 C0.70742188 3.50425781 0.53984375 2.69601562 0.3671875 1.86328125 C0.24601562 1.24839844 0.12484375 0.63351562 0 0 Z " fill="#7102D1" transform="translate(262,341)"/>
<path d="M0 0 C2.46301423 2.46301423 2.76766521 4.27360036 3.625 7.625 C3.88539063 8.62789063 4.14578125 9.63078125 4.4140625 10.6640625 C4.60742188 11.43492187 4.80078125 12.20578125 5 13 C4.34 12.67 3.68 12.34 3 12 C3 11.34 3 10.68 3 10 C2.01 9.67 1.02 9.34 0 9 C0 6.03 0 3.06 0 0 Z " fill="#9B2DF1" transform="translate(255,311)"/>
<path d="M0 0 C0.99 0 1.98 0 3 0 C4.1577506 3.47325181 4.06866652 6.36067448 4 10 C1.16625119 6.79663178 0.4794463 4.21912747 0 0 Z " fill="#971CF8" transform="translate(233,143)"/>
<path d="M0 0 C0.99 0 1.98 0 3 0 C3.95024979 3.69541586 3.95024979 6.30458414 3 10 C1.11608215 6.73454239 0.50712033 3.71888239 0 0 Z " fill="#8001EB" transform="translate(241,281)"/>
<path d="M0 0 C2.89932357 2.39509338 3.50168276 4.31245243 4 8 C0.125 6.25 0.125 6.25 -1 4 C-0.5625 1.875 -0.5625 1.875 0 0 Z " fill="#7103D3" transform="translate(250,181)"/>
<path d="M0 0 C1.32 0.33 2.64 0.66 4 1 C4 4.3 4 7.6 4 11 C1.6870518 8.6870518 1.50419025 7.52095125 0.875 4.375 C0.70742187 3.55773437 0.53984375 2.74046875 0.3671875 1.8984375 C0.24601563 1.27195312 0.12484375 0.64546875 0 0 Z " fill="#7501D9" transform="translate(247,300)"/>
<path d="M0 0 C2 1 2 1 3.25 4.375 C3.4975 5.57125 3.745 6.7675 4 8 C3.01 9.485 3.01 9.485 2 11 C0.57741188 7.17679443 -0.24042276 4.08718695 0 0 Z " fill="#921AF3" transform="translate(230,132)"/>
<path d="M0 0 C2.18975773 3.28463659 2.99806563 6.20696275 4 10 C2.68 9.34 1.36 8.68 0 8 C0 5.36 0 2.72 0 0 Z " fill="#9A2FEE" transform="translate(264,336)"/>
<path d="M0 0 C2.18975773 3.28463659 2.99806563 6.20696275 4 10 C3.34 9.67 2.68 9.34 2 9 C2 8.01 2 7.02 2 6 C1.01 5.67 0.02 5.34 -1 5 C-0.67 3.35 -0.34 1.7 0 0 Z " fill="#921EF0" transform="translate(245,284)"/>
<path d="M0 0 C0.99 0.33 1.98 0.66 3 1 C3.33 2.65 3.66 4.3 4 6 C2.68 5.67 1.36 5.34 0 5 C0 3.35 0 1.7 0 0 Z " fill="#8607EF" transform="translate(246,176)"/>
</svg>
